<?xml version="1.0" encoding="UTF-8" standalone="no"?>
<!DOCTYPE svg PUBLIC "-//W3C//DTD SVG 1.1//EN" "http://www.w3.org/Graphics/SVG/1.1/DTD/svg11.dtd">
<svg width="100%" height="100%" viewBox="0 0 64 64" version="1.1" xmlns="http://www.w3.org/2000/svg" xmlns:xlink="http://www.w3.org/1999/xlink" xml:space="preserve" xmlns:serif="http://www.serif.com/" style="fill-rule:evenodd;clip-rule:evenodd;stroke-linejoin:round;stroke-miterlimit:2;">
    <g transform="matrix(1.29322,1.11022e-16,-1.11022e-16,1.29322,-358.577,-259.536)">
        <path d="M286.75,234.77L305,234.77C307.466,234.779 309.588,236.579 310,239.01L284.2,239.01C282.34,239.01 280.81,237.48 280.81,235.62L280.81,215.25C280.81,213.39 282.34,211.86 284.2,211.86L319.84,211.86C321.7,211.86 323.23,213.39 323.23,215.25L323.23,235.57C323.228,237.428 321.698,238.956 319.84,238.956C318.94,238.956 318.076,238.597 317.44,237.96L309.44,229.96C307.851,228.366 305.691,227.47 303.44,227.47L295.66,227.47C293.195,227.457 291.076,225.659 290.66,223.23L305.21,223.23C307.459,223.227 309.619,224.12 311.21,225.71L317.6,232.1C317.759,232.259 317.975,232.348 318.2,232.348C318.666,232.348 319.049,231.966 319.05,231.5L319.05,217.8C319.05,216.867 318.283,216.1 317.35,216.1L286.75,216.1C285.817,216.1 285.05,216.867 285.05,217.8L285.05,233.07C285.05,234.003 285.817,234.77 286.75,234.77Z" style="fill:rgb(68,159,182);fill-rule:nonzero;"/>
    </g>
</svg>
